<?xml version="1.0" encoding="UTF-8"?>
<svg width="1393px" height="254px" viewBox="0 0 1393 254" version="1.1" xmlns="http://www.w3.org/2000/svg" xmlns:xlink="http://www.w3.org/1999/xlink">
    <!-- Generator: Sketch 51 (57462) - http://www.bohemiancoding.com/sketch -->
    <desc>Created with Sketch.</desc>
    <defs>
        <linearGradient x1="11.3497988%" y1="100%" x2="70.781804%" y2="4.97274114%" id="linearGradient-1">
            <stop stop-color="#1F92FF" offset="0%"></stop>
            <stop stop-color="#1B7FF1" offset="20.2034776%"></stop>
            <stop stop-color="#000395" offset="100%"></stop>
        </linearGradient>
        <linearGradient x1="0%" y1="87.636094%" x2="76.8502469%" y2="0%" id="linearGradient-2">
            <stop stop-color="#1F92FF" offset="0%"></stop>
            <stop stop-color="#1B7FF1" offset="20.2034776%"></stop>
            <stop stop-color="#000395" offset="100%"></stop>
        </linearGradient>
    </defs>
    <g id="Primary-Logo" stroke="none" stroke-width="1" fill="none" fill-rule="evenodd">
        <g id="Group">
            <g id="Group-Copy">
                <path d="M152.184473,2.76131825 C156.415819,3.46152057 160.949638,4.45248404 165.847675,5.80430782 C197.577715,14.5615761 229.980005,44.5724903 203.008105,38.5726764 C161.879114,26.1224442 135.038506,50.7931677 121.645893,79.8614688 C121.295077,80.6229046 120.940374,81.4017818 120.583711,82.194751 C104.654313,126.314974 96.6277113,201.902701 40.8986968,190.713318 C-15.5252212,172.764119 -1.8475754,90.4062413 18.0576624,59.5702959 C39.4598702,26.4153384 64.1520099,8.10775406 101.166274,2.1865424 C121.603665,-1.08284903 138.555235,-0.105982834 152.184466,2.76131668 Z" id="Combined-Shape-Copy-6" fill="url(#linearGradient-1)"></path>
                <path d="M197.373757,54.795453 C201.605103,55.4956554 206.138922,56.4866188 211.036959,57.8384426 C242.766999,66.5957109 275.169289,96.6066251 248.197388,90.6068112 C207.068398,78.156579 180.227789,102.827303 166.835177,131.895604 C166.484361,132.657039 166.129658,133.435917 165.772995,134.228886 C149.843597,178.349109 141.816995,253.936836 86.0879807,242.747453 C29.6640626,224.798254 43.3417085,142.440376 63.2469462,111.604431 C84.6491541,78.4494732 109.341294,60.1418889 146.355558,54.2206772 C166.792949,50.9512858 183.744518,51.928152 197.37375,54.7954515 Z" id="Combined-Shape-Copy-7" fill="url(#linearGradient-2)" transform="translate(152.094642, 148.017067) scale(-1, -1) translate(-152.094642, -148.017067) "></path>
            </g>
            <path d="M312.065632,186.60551 C320.323135,188.751971 327.507055,189.825186 333.617607,189.825186 C349.802313,189.825186 362.188382,186.564265 370.776185,180.042324 C379.363988,173.520384 383.657825,164.232949 383.657825,152.179743 C383.657825,142.603222 379.776857,134.512835 372.014804,127.908339 C364.252751,121.303842 354.509044,115.855214 342.78339,111.562291 C336.672837,109.415829 332.007418,107.475788 328.786992,105.742107 C325.566566,104.008427 323.956377,102.068385 323.956377,99.9219235 C323.956377,97.1150123 325.318844,94.6796407 328.04382,92.6157355 C330.768796,90.5518302 334.195609,89.5198931 338.32436,89.5198931 C343.609162,89.5198931 348.68745,90.1803328 353.559377,91.5012322 C358.431304,92.8221315 364.005035,94.8860058 370.280737,97.6929169 L379.941967,76.145854 C374.326865,72.3482684 367.47324,69.2937344 359.380888,66.9821606 C351.288535,64.6705867 344.43491,63.5148171 338.819808,63.5148171 C324.451753,63.5148171 313.056569,66.7757385 304.633916,73.297679 C296.211263,79.8196196 292,88.7768339 292,100.169591 C292,109.250774 295.798394,116.763276 303.395297,122.707323 C310.9922,128.65137 320.488186,133.522114 331.88354,137.319699 C345.921295,141.612622 352.940067,146.978695 352.940067,153.41808 C352.940067,156.720328 350.875723,159.279532 346.746971,161.095769 C342.61822,162.912005 338.076661,163.82011 333.122159,163.82011 C324.369206,163.82011 313.882335,161.095796 301.66123,155.647086 L292,177.441817 C297.119652,181.404515 303.808129,184.459049 312.065632,186.60551 Z M515.446914,66.7344932 L515.446914,238.615662 L482.995089,241.092336 L482.995089,182.147497 C474.737586,187.265982 465.902191,189.825186 456.488637,189.825186 C437.82668,189.825186 423.087259,184.170171 412.26993,172.85997 C401.452601,161.549769 396.044018,146.235822 396.044018,126.917669 C396.044018,114.369125 398.479944,103.306759 403.351871,93.7302387 C408.223798,84.1537184 415.283857,76.723771 424.53226,71.4401736 C433.780664,66.1565762 444.762978,63.5148171 457.479533,63.5148171 C462.929485,63.5148171 468.750937,64.8356967 474.944064,67.4774954 C481.137191,70.1192941 486.628349,73.5040479 491.4177,77.6318584 L498.601692,66.7344932 L515.446914,66.7344932 Z M470.237311,159.857432 C474.283487,158.206308 478.536038,155.729659 482.995089,152.42741 L482.995089,101.16026 C478.701188,97.5277872 474.572498,94.9273056 470.608897,93.3587376 C466.645295,91.7901696 462.351458,91.0058974 457.727257,91.0058974 C448.974303,91.0058974 442.038105,94.3493737 436.918453,101.036427 C431.798801,107.72348 429.239014,116.350474 429.239014,126.917669 C429.239014,137.484864 431.757514,146.029303 436.794591,152.551244 C441.831668,159.073184 448.809153,162.334106 457.727257,162.334106 C462.021158,162.334106 466.191135,161.508556 470.237311,159.857432 Z M624.940856,149.950736 C618.995454,154.243659 613.545584,157.66969 608.591082,160.228933 C603.63658,162.788175 598.351858,164.067777 592.736755,164.067777 C587.286803,164.067777 583.034253,162.003903 579.978977,157.876093 C576.923701,153.748282 575.396086,147.969434 575.396086,140.539375 L575.396086,66.7344932 L543.191985,66.7344932 L543.191985,142.02538 C543.191985,157.380835 546.247215,169.351306 552.357768,177.937151 C558.46832,186.522997 569.120339,190.815856 584.314145,190.815856 C590.920147,190.815856 598.434362,189.329866 606.857015,186.357843 C615.279668,183.385819 623.206752,179.25807 630.638505,173.974473 L636.088429,186.853177 L657.144957,186.853177 L657.144957,66.7344932 L624.940856,66.7344932 L624.940856,149.950736 Z M712.882823,95.5877441 C706.276821,97.1563121 700.661803,99.013799 696.037601,101.16026 L687.367267,74.4121823 C691.661168,71.6052712 698.514793,69.0873445 707.928346,66.8583269 C717.3419,64.6293092 724.856115,63.5148171 730.471217,63.5148171 C740.04992,63.5148171 748.802742,65.4135815 756.729945,69.2111671 C764.657148,73.0087527 770.974043,78.2922709 775.68082,85.0618801 C780.387596,91.8314892 782.740949,99.4265466 782.740949,107.84728 L782.740949,186.853177 L761.684422,186.853177 L756.234497,173.974473 C746.160344,184.541668 735.590898,189.825186 724.525844,189.825186 C710.157789,189.825186 699.340622,186.3166 692.07402,179.299322 C684.807417,172.282044 681.17417,162.8295 681.17417,150.941406 C681.17417,138.723087 685.30286,129.270543 693.560363,122.58349 C701.817866,115.896437 712.882754,112.55296 726.755359,112.55296 L750.289125,112.55296 C750.123975,106.443801 748.348638,101.69689 744.963062,98.3120854 C741.577486,94.9272808 736.912067,93.2349039 730.966664,93.2349039 C725.516713,93.2349039 719.488826,94.0191762 712.882823,95.5877441 Z M713.502133,139.053371 C710.281707,142.355619 708.671518,146.318258 708.671518,150.941406 C708.671518,154.573879 710.116559,157.710968 713.006685,160.352767 C715.896811,162.994565 719.571345,164.315445 724.030397,164.315445 C733.6091,164.315445 742.444496,160.352806 750.536849,152.42741 L750.536849,134.100023 L726.259911,134.100023 C720.975109,134.100023 716.722559,135.751123 713.502133,139.053371 Z M920.970858,12 L920.970858,186.853177 L904.125637,186.853177 L896.693921,175.955812 C886.124317,185.202108 874.563986,189.825186 862.012582,189.825186 C843.350625,189.825186 828.611203,184.170171 817.793874,172.85997 C806.976545,161.549769 801.567962,146.235822 801.567962,126.917669 C801.567962,114.369125 804.003889,103.306759 808.875816,93.7302387 C813.747742,84.1537184 820.807802,76.723771 830.056205,71.4401736 C839.304608,66.1565762 850.286923,63.5148171 863.003477,63.5148171 C866.967079,63.5148171 871.178342,64.2165344 875.637394,65.6199899 C880.096445,67.0234455 884.390282,68.9634873 888.519034,71.4401736 L888.519034,14.7243413 L920.970858,12 Z M842.318536,152.551244 C847.355612,159.073184 854.333098,162.334106 863.251201,162.334106 C867.545103,162.334106 871.715079,161.508556 875.761256,159.857432 C879.807432,158.206308 884.059982,155.729659 888.519034,152.42741 L888.519034,101.16026 C884.225132,97.5277872 880.096443,94.9273056 876.132841,93.3587376 C872.16924,91.7901696 867.875403,91.0058974 863.251201,91.0058974 C854.498248,91.0058974 847.562049,94.3493737 842.442398,101.036427 C837.322746,107.72348 834.762958,116.350474 834.762958,126.917669 C834.762958,137.484864 837.281459,146.029303 842.318536,152.551244 Z M1027.98756,66.9821606 C1019.73006,64.6705867 1012.79386,63.5148171 1007.17876,63.5148171 C994.297054,63.5148171 983.025731,66.1152987 973.364453,71.3163399 C963.703174,76.5173811 956.271533,83.906051 951.069306,93.4825713 C945.867079,103.059092 943.266005,114.204013 943.266005,126.917669 C943.266005,139.631325 945.867079,150.734969 951.069306,160.228933 C956.271533,169.722897 963.703174,177.029012 973.364453,182.147497 C983.025731,187.265982 994.297054,189.825186 1007.17876,189.825186 C1013.28931,189.825186 1020.47323,188.751971 1028.73073,186.60551 C1036.98824,184.459049 1043.67671,181.404515 1048.79637,177.441817 L1039.63058,154.161082 C1033.35488,156.967993 1027.73986,159.031867 1022.78536,160.352767 C1017.83086,161.673666 1012.71128,162.334106 1007.42648,162.334106 C998.343229,162.334106 990.911588,159.031907 985.131336,152.42741 C979.351084,145.822913 976.461001,137.319751 976.461001,126.917669 C976.461001,116.515587 979.392371,107.92987 985.255198,101.16026 C991.118025,94.3906512 998.508379,91.0058974 1007.42648,91.0058974 C1012.71128,91.0058974 1017.83086,91.6663372 1022.78536,92.9872365 C1027.73986,94.3081359 1033.35488,96.3720102 1039.63058,99.1789213 L1048.79637,76.145854 C1043.18126,72.3482684 1036.24507,69.2937344 1027.98756,66.9821606 Z M1096.11162,95.5877441 C1089.50562,97.1563121 1083.8906,99.013799 1079.2664,101.16026 L1070.59606,74.4121823 C1074.88997,71.6052712 1081.74359,69.0873445 1091.15714,66.8583269 C1100.5707,64.6293092 1108.08491,63.5148171 1113.70001,63.5148171 C1123.27872,63.5148171 1132.03154,65.4135815 1139.95874,69.2111671 C1147.88595,73.0087527 1154.20284,78.2922709 1158.90962,85.0618801 C1163.61639,91.8314892 1165.96975,99.4265466 1165.96975,107.84728 L1165.96975,186.853177 L1144.91322,186.853177 L1139.4633,173.974473 C1129.38914,184.541668 1118.8197,189.825186 1107.75464,189.825186 C1093.38659,189.825186 1082.56942,186.3166 1075.30282,179.299322 C1068.03622,172.282044 1064.40297,162.8295 1064.40297,150.941406 C1064.40297,138.723087 1068.53166,129.270543 1076.78916,122.58349 C1085.04666,115.896437 1096.11155,112.55296 1109.98416,112.55296 L1133.51792,112.55296 C1133.35277,106.443801 1131.57744,101.69689 1128.19186,98.3120854 C1124.80628,94.9272808 1120.14086,93.2349039 1114.19546,93.2349039 C1108.74551,93.2349039 1102.71762,94.0191762 1096.11162,95.5877441 Z M1096.73093,139.053371 C1093.5105,142.355619 1091.90032,146.318258 1091.90032,150.941406 C1091.90032,154.573879 1093.34536,157.710968 1096.23548,160.352767 C1099.12561,162.994565 1102.80014,164.315445 1107.25919,164.315445 C1116.8379,164.315445 1125.67329,160.352806 1133.76565,152.42741 L1133.76565,134.100023 L1109.48871,134.100023 C1104.20391,134.100023 1099.95136,135.751123 1096.73093,139.053371 Z M1205.35784,186.60551 C1213.61534,188.751971 1220.79926,189.825186 1226.90981,189.825186 C1243.09452,189.825186 1255.48059,186.564265 1264.06839,180.042324 C1272.6562,173.520384 1276.95003,164.232949 1276.95003,152.179743 C1276.95003,142.603222 1273.06906,134.512835 1265.30701,127.908339 C1257.54496,121.303842 1247.80125,115.855214 1236.0756,111.562291 C1229.96505,109.415829 1225.29963,107.475788 1222.0792,105.742107 C1218.85877,104.008427 1217.24858,102.068385 1217.24858,99.9219235 C1217.24858,97.1150123 1218.61105,94.6796407 1221.33603,92.6157355 C1224.061,90.5518302 1227.48782,89.5198931 1231.61657,89.5198931 C1236.90137,89.5198931 1241.97966,90.1803328 1246.85158,91.5012322 C1251.72351,92.8221315 1257.29724,94.8860058 1263.57294,97.6929169 L1273.23417,76.145854 C1267.61907,72.3482684 1260.76545,69.2937344 1252.6731,66.9821606 C1244.58074,64.6705867 1237.72712,63.5148171 1232.11202,63.5148171 C1217.74396,63.5148171 1206.34878,66.7757385 1197.92612,73.297679 C1189.50347,79.8196196 1185.29221,88.7768339 1185.29221,100.169591 C1185.29221,109.250774 1189.0906,116.763276 1196.6875,122.707323 C1204.28441,128.65137 1213.78039,133.522114 1225.17575,137.319699 C1239.2135,141.612622 1246.23228,146.978695 1246.23228,153.41808 C1246.23228,156.720328 1244.16793,159.279532 1240.03918,161.095769 C1235.91043,162.912005 1231.36887,163.82011 1226.41437,163.82011 C1217.66141,163.82011 1207.17454,161.095796 1194.95344,155.647086 L1185.29221,177.441817 C1190.41186,181.404515 1197.10034,184.459049 1205.35784,186.60551 Z M1333.67879,66.9821606 L1333.67879,32.8040608 L1301.72242,38.5004107 L1301.72242,66.9821606 L1285.62037,66.9821606 L1285.62037,91.7488996 L1301.72242,91.7488996 L1301.72242,148.464732 C1301.72242,162.169063 1305.93368,172.818654 1314.35633,180.413825 C1322.77899,188.008996 1334.50447,191.806525 1349.53312,191.806525 C1353.49672,191.806525 1357.91442,191.06353 1362.78635,189.577519 C1367.65827,188.091507 1371.33281,186.357852 1373.81006,184.376503 L1364.39655,161.095769 C1359.9375,163.24223 1355.56109,164.315445 1351.26719,164.315445 C1345.65209,164.315445 1341.31696,162.334126 1338.26169,158.371427 C1335.20641,154.408729 1333.67879,149.207766 1333.67879,142.768382 L1333.67879,91.7488996 L1365.38745,91.7488996 L1355.47849,66.9821606 L1333.67879,66.9821606 Z" id="squadcast-copy-5" fill="#000495"></path>
        </g>
    </g>
</svg>
