<svg width="144" height="23" viewBox="0 0 144 23" fill="none" xmlns="http://www.w3.org/2000/svg">
<path d="M11.4328 2.04927C16.6099 2.04927 20.8282 6.29245 20.8282 11.5C20.8282 14.0314 19.8455 16.3941 18.0719 18.1782C16.2983 19.9623 13.9494 20.9507 11.4328 20.9507C6.25566 20.9507 2.03728 16.7075 2.03728 11.5C2.03728 6.29245 6.25566 2.04927 11.4328 2.04927ZM11.4328 0C5.12916 0 0 5.15933 0 11.5C0 17.8407 5.12916 23 11.4328 23C17.7364 23 22.8655 17.8407 22.8655 11.5C22.8655 5.13522 17.7364 0 11.4328 0Z" fill="#359FFF"/>
<path d="M11.4328 6.22016C14.3329 6.22016 16.6818 8.58285 16.6818 11.5C16.6818 14.4172 14.3329 16.7799 11.4328 16.7799C8.53264 16.7799 6.18377 14.4172 6.18377 11.5C6.18377 8.58285 8.53264 6.22016 11.4328 6.22016ZM11.4328 4.1709C7.40614 4.1709 4.14648 7.44972 4.14648 11.5C4.14648 15.5504 7.40614 18.8292 11.4328 18.8292C15.4594 18.8292 18.7191 15.5504 18.7191 11.5C18.7191 7.44972 15.4594 4.1709 11.4328 4.1709Z" fill="#359FFF"/>
<path d="M11.4323 10.0774C12.1993 10.0774 12.8464 10.7042 12.8464 11.4998C12.8464 12.2713 12.2232 12.9223 11.4323 12.9223C10.6653 12.9223 10.0182 12.2954 10.0182 11.4998C10.0182 10.7042 10.6413 10.0774 11.4323 10.0774ZM11.4323 8.63086C9.87435 8.63086 8.58008 9.90864 8.58008 11.4998C8.58008 13.0669 9.85038 14.3688 11.4323 14.3688C13.0142 14.3688 14.2845 13.091 14.2845 11.4998C14.2845 9.90864 12.9902 8.63086 11.4323 8.63086Z" fill="#052B4E"/>
<path d="M28.4269 19.4076C27.2765 19.0701 26.3178 18.612 25.5508 18.0093L26.7252 15.3814C28.3311 16.4904 30.1047 17.0449 32.0941 17.0449C33.1247 17.0449 33.9156 16.8762 34.4669 16.5386C35.0182 16.2011 35.3058 15.743 35.3058 15.1403C35.3058 14.6099 35.0421 14.2001 34.5388 13.8867C34.0355 13.5973 33.1247 13.308 31.8304 13.0187C30.3684 12.7294 29.2179 12.3678 28.355 11.9338C27.4922 11.4999 26.8451 10.9936 26.4616 10.3667C26.0541 9.7399 25.8624 8.96842 25.8624 8.07638C25.8624 7.0638 26.15 6.17177 26.7012 5.37617C27.2525 4.58058 28.0435 3.97785 29.0261 3.51978C30.0328 3.06171 31.1833 2.84473 32.5015 2.84473C33.6759 2.84473 34.8024 3.01349 35.881 3.37512C36.9596 3.71265 37.8224 4.19483 38.4696 4.77345L37.2951 7.40133C35.7851 6.29232 34.1793 5.73781 32.5015 5.73781C31.5428 5.73781 30.7998 5.93068 30.2485 6.29232C29.6973 6.65395 29.4336 7.16024 29.4336 7.81118C29.4336 8.19693 29.5295 8.51034 29.7452 8.75144C29.9609 8.99253 30.2965 9.20951 30.7998 9.40238C31.3031 9.59525 31.9982 9.78812 32.909 9.98099C35.0421 10.4632 36.5521 11.0659 37.4869 11.7892C38.4216 12.5366 38.877 13.5491 38.877 14.851C38.877 16.4181 38.2778 17.6718 37.0794 18.5638C35.881 19.4799 34.2032 19.9139 32.0461 19.9139C30.7998 19.9139 29.5774 19.7451 28.4269 19.4076Z" fill="#052B4E"/>
<path d="M40.7461 19.6967V3.06152H44.4132V16.6831H51.7954V19.6726H40.7461V19.6967Z" fill="#052B4E"/>
<path d="M55.535 18.8534C54.3126 18.1543 53.4018 17.1658 52.7307 15.888C52.0836 14.6102 51.748 13.0914 51.748 11.3796C51.748 9.64377 52.0836 8.14901 52.7307 6.87124C53.3779 5.59346 54.3126 4.60499 55.535 3.90583C56.7574 3.20667 58.1715 2.86914 59.8253 2.86914C61.4791 2.86914 62.8932 3.20667 64.1156 3.90583C65.3379 4.60499 66.2487 5.59346 66.9198 6.87124C67.567 8.14901 67.9025 9.66788 67.9025 11.3796C67.9025 13.1155 67.567 14.6102 66.9198 15.888C66.2727 17.1658 65.3379 18.1543 64.1156 18.8534C62.8932 19.5526 61.4791 19.9142 59.8253 19.9142C58.1715 19.9142 56.7574 19.5526 55.535 18.8534ZM63.061 15.5987C63.8519 14.6343 64.2354 13.2119 64.2354 11.3796C64.2354 9.54734 63.8519 8.14901 63.061 7.16055C62.27 6.19618 61.1915 5.714 59.8013 5.714C58.4112 5.714 57.3326 6.19618 56.5656 7.16055C55.7986 8.12491 55.4152 9.52323 55.4152 11.3796C55.4152 13.2119 55.7986 14.6343 56.5896 15.5987C57.3805 16.5631 58.4591 17.0694 59.8253 17.0694C61.1915 17.0452 62.27 16.5631 63.061 15.5987Z" fill="#052B4E"/>
<path d="M78.8797 17.189L78.688 19.7927C78.2326 19.8651 77.7772 19.8892 77.3218 19.8892C75.5721 19.8892 74.3018 19.5034 73.4869 18.7319C72.672 17.9605 72.2885 16.7791 72.2885 15.212V10.776H70.1074V8.12398H72.2885V4.72461H75.8358V8.12398H78.7119V10.8001H75.8358V15.212C75.8358 16.5862 76.4829 17.2854 77.7532 17.2854C78.1127 17.2613 78.4723 17.2372 78.8797 17.189Z" fill="#359FFF"/>
<path d="M88.2503 10.7518L86.261 10.9688C85.2783 11.0653 84.5832 11.3546 84.1758 11.8126C83.7683 12.2707 83.5766 12.8975 83.5766 13.669V19.6963H80.0293V8.12396H83.4328V10.0768C84.008 8.7508 85.2064 8.00342 87.028 7.88287L88.0586 7.81055L88.2503 10.7518Z" fill="#359FFF"/>
<path d="M97.9351 9.06422C98.75 9.88392 99.1574 11.1376 99.1574 12.8493V19.6963H95.8019V17.9846C95.5622 18.5873 95.1787 19.0453 94.6275 19.3829C94.0762 19.7204 93.4291 19.8892 92.71 19.8892C91.9191 19.8892 91.224 19.7204 90.5769 19.407C89.9537 19.0936 89.4504 18.6596 89.0669 18.081C88.7074 17.5265 88.5156 16.8755 88.5156 16.2005C88.5156 15.3567 88.7313 14.6816 89.1628 14.1994C89.5942 13.7173 90.2893 13.3556 91.248 13.1386C92.2067 12.9217 93.501 12.8011 95.1548 12.8011H95.754V12.3913C95.754 11.6921 95.6102 11.2099 95.2986 10.9206C95.011 10.6313 94.4837 10.4866 93.7407 10.4866C93.1894 10.4866 92.5423 10.5831 91.8712 10.8001C91.2 11.017 90.5289 11.2822 89.9058 11.6439L89.019 9.25709C89.6661 8.84723 90.481 8.50971 91.4397 8.2204C92.3984 7.9552 93.2853 7.81055 94.1241 7.81055C95.8498 7.83466 97.1202 8.24451 97.9351 9.06422ZM95.1548 16.7309C95.5862 16.2728 95.7779 15.6701 95.7779 14.9227V14.5129H95.3705C94.1002 14.5129 93.2134 14.6093 92.71 14.8263C92.2067 15.0191 91.9431 15.4049 91.9431 15.9353C91.9431 16.3692 92.0869 16.7068 92.3745 16.9961C92.6621 17.2854 93.0216 17.43 93.453 17.43C94.1721 17.43 94.7233 17.189 95.1548 16.7309Z" fill="#359FFF"/>
<path d="M101.913 18.2739C100.834 17.2131 100.283 15.7424 100.283 13.9101C100.283 12.7047 100.547 11.6439 101.05 10.7036C101.577 9.78749 102.297 9.06422 103.231 8.55793C104.166 8.05164 105.245 7.81055 106.491 7.81055C107.33 7.81055 108.145 7.93109 108.936 8.19629C109.727 8.46149 110.35 8.79902 110.829 9.25709L109.894 11.6921C109.439 11.3305 108.936 11.0412 108.408 10.8483C107.881 10.6554 107.33 10.559 106.826 10.559C105.916 10.559 105.197 10.8242 104.693 11.3787C104.19 11.9332 103.926 12.7529 103.926 13.8378C103.926 14.9227 104.19 15.7424 104.693 16.2969C105.197 16.8514 105.916 17.1407 106.826 17.1407C107.354 17.1407 107.881 17.0443 108.408 16.8514C108.936 16.6586 109.439 16.3692 109.894 16.0076L110.829 18.4667C110.302 18.9007 109.655 19.2623 108.864 19.5034C108.073 19.7445 107.234 19.8892 106.323 19.8892C104.454 19.8892 102.992 19.3347 101.913 18.2739Z" fill="#359FFF"/>
<path d="M124.323 19.6967H119.985L115.575 14.5374V19.6967H112.027V3.06152H115.575V13.0668L119.817 8.14853H124.035L119.218 13.6454L124.323 19.6967Z" fill="#359FFF"/>
<path d="M134.486 14.5858H126.984C127.103 15.5019 127.391 16.177 127.894 16.6109C128.398 17.0208 129.093 17.2378 130.004 17.2378C130.603 17.2378 131.178 17.1413 131.777 16.9485C132.352 16.7556 132.904 16.4663 133.383 16.1047L134.318 18.4915C133.766 18.9254 133.071 19.287 132.257 19.5281C131.442 19.7692 130.651 19.9139 129.836 19.9139C127.894 19.9139 126.36 19.3835 125.258 18.2986C124.131 17.2137 123.58 15.7671 123.58 13.9107C123.58 12.7294 123.82 11.6927 124.299 10.7766C124.778 9.86042 125.45 9.16126 126.312 8.63086C127.175 8.12457 128.158 7.85938 129.237 7.85938C130.842 7.85938 132.113 8.38977 133.071 9.45057C134.006 10.5114 134.486 11.9338 134.486 13.742V14.5858ZM127.727 10.9212C127.319 11.3552 127.079 11.982 126.984 12.8017H131.514C131.466 11.9579 131.25 11.3311 130.89 10.9212C130.531 10.4873 130.004 10.2944 129.332 10.2944C128.661 10.2944 128.11 10.4873 127.727 10.9212Z" fill="#359FFF"/>
<path d="M144 10.7518L142.011 10.9688C141.028 11.0653 140.333 11.3546 139.926 11.8126C139.518 12.2707 139.327 12.8975 139.327 13.669V19.6963H135.779V8.12396H139.183V10.0768C139.758 8.7508 140.956 8.00342 142.778 7.88287L143.809 7.81055L144 10.7518Z" fill="#359FFF"/>
</svg>
